<mxfile host="Electron" agent="Mozilla/5.0 (Windows NT 10.0; Win64; x64) AppleWebKit/537.36 (KHTML, like Gecko) draw.io/26.2.2 Chrome/134.0.6998.178 Electron/35.1.2 Safari/537.36" version="26.2.2">
  <diagram name="app" id="2ACV0znkLDRry5PCubox">
    <mxGraphModel dx="1428" dy="841" grid="1" gridSize="10" guides="1" tooltips="1" connect="1" arrows="1" fold="1" page="1" pageScale="1" pageWidth="827" pageHeight="1169" math="0" shadow="0">
      <root>
        <mxCell id="0" />
        <mxCell id="1" parent="0" />
        <mxCell id="N-cTi0HFKv35opkU0CgU-1" value="" style="rounded=0;whiteSpace=wrap;html=1;strokeColor=none;" vertex="1" parent="1">
          <mxGeometry x="160" y="194" width="360" height="397" as="geometry" />
        </mxCell>
        <mxCell id="lLNGEcQ8z9tbdy__nYQa-7" value="&lt;i&gt;Check availability&lt;/i&gt;" style="edgeStyle=orthogonalEdgeStyle;rounded=0;orthogonalLoop=1;jettySize=auto;html=1;" parent="1" source="lLNGEcQ8z9tbdy__nYQa-6" target="lLNGEcQ8z9tbdy__nYQa-9" edge="1">
          <mxGeometry relative="1" as="geometry">
            <mxPoint x="450" y="330" as="targetPoint" />
            <Array as="points">
              <mxPoint x="340" y="329" />
              <mxPoint x="340" y="329" />
            </Array>
          </mxGeometry>
        </mxCell>
        <mxCell id="lLNGEcQ8z9tbdy__nYQa-8" value="Track availability" style="edgeStyle=orthogonalEdgeStyle;rounded=0;orthogonalLoop=1;jettySize=auto;html=1;fontStyle=2" parent="1" source="lLNGEcQ8z9tbdy__nYQa-6" target="lLNGEcQ8z9tbdy__nYQa-1" edge="1">
          <mxGeometry relative="1" as="geometry">
            <Array as="points">
              <mxPoint x="360" y="460" />
              <mxPoint x="360" y="460" />
            </Array>
          </mxGeometry>
        </mxCell>
        <mxCell id="lLNGEcQ8z9tbdy__nYQa-6" value="Availability Tests" style="rounded=0;whiteSpace=wrap;html=1;labelPosition=center;verticalLabelPosition=top;align=center;verticalAlign=bottom;strokeColor=#CCCCCC;fontStyle=1" parent="1" vertex="1">
          <mxGeometry x="170" y="220" width="130" height="360" as="geometry" />
        </mxCell>
        <mxCell id="lLNGEcQ8z9tbdy__nYQa-1" value="Application Insights" style="image;aspect=fixed;html=1;points=[];align=center;fontSize=12;image=img/lib/azure2/management_governance/Application_Insights.svg;" parent="1" vertex="1">
          <mxGeometry x="439" y="426.75" width="44" height="63" as="geometry" />
        </mxCell>
        <mxCell id="lLNGEcQ8z9tbdy__nYQa-2" value="Azure Function" style="image;aspect=fixed;html=1;points=[];align=center;fontSize=12;image=img/lib/azure2/compute/Function_Apps.svg;" parent="1" vertex="1">
          <mxGeometry x="200" y="360.25" width="68" height="60" as="geometry" />
        </mxCell>
        <mxCell id="lLNGEcQ8z9tbdy__nYQa-3" value="Logic App Workflow" style="image;aspect=fixed;html=1;points=[];align=center;fontSize=12;image=img/lib/azure2/internet_of_things/Logic_Apps.svg;" parent="1" vertex="1">
          <mxGeometry x="200" y="470" width="68" height="68" as="geometry" />
        </mxCell>
        <mxCell id="lLNGEcQ8z9tbdy__nYQa-4" value="Standard Test&lt;div&gt;(webtest)&lt;/div&gt;" style="image;aspect=fixed;html=1;points=[];align=center;fontSize=12;image=img/lib/azure2/general/Globe.svg;" parent="1" vertex="1">
          <mxGeometry x="206" y="240" width="56.00000000000001" height="66" as="geometry" />
        </mxCell>
        <mxCell id="lLNGEcQ8z9tbdy__nYQa-9" value="API" style="shape=image;verticalLabelPosition=bottom;labelBackgroundColor=default;verticalAlign=top;aspect=fixed;imageAspect=0;image=data:image/svg+xml,PHN2ZyB4bWxucz0iaHR0cDovL3d3dy53My5vcmcvMjAwMC9zdmciIHZpZXdCb3g9IjAgMCA1MCA1MCI+JiN4YTsgICAgPHBhdGggZmlsbD0iIzU3YTMwMCIgZD0iTTAgMjAuODRoMTkuNTV2OC4zMkgweiIvPiYjeGE7ICAgIDxwYXRoIGZpbGw9IiM1OWI0ZDkiIGQ9Ik00MS42OCAyMC44NGgxMC4yNnY4LjMySDQxLjY4eiIvPiYjeGE7ICAgIDxjaXJjbGUgZmlsbD0iIzU3YTMwMCIgcj0iOS40NiIgY3k9IjI1IiBjeD0iMjAuMTIiLz4mI3hhOyAgICA8cGF0aCBmaWxsPSIjNTliNGQ5IiBkPSJNMjAuMTIuNDh2MTAuOTZhMSAxIDAgMCAxIDAgMjcuMTR2MTAuOTZhMSAxIDAgMCAwIDAtNDkuMDVaIi8+JiN4YTs8L3N2Zz4=;" parent="1" vertex="1">
          <mxGeometry x="430" y="298.25" width="62" height="62" as="geometry" />
        </mxCell>
      </root>
    </mxGraphModel>
  </diagram>
</mxfile>
